<svg xmlns="http://www.w3.org/2000/svg" width="334" height="334" viewBox="0 0 334 334">
  <defs>
    <linearGradient id="qrGrad" x1="0%" y1="0%" x2="100%" y2="100%">
      <stop offset="0%" stop-color="#1a1a1a"/>
      <stop offset="20%" stop-color="#2a1a2e"/>
      <stop offset="40%" stop-color="#1a2a3e"/>
      <stop offset="60%" stop-color="#1a2e2a"/>
      <stop offset="80%" stop-color="#2e2a1a"/>
      <stop offset="100%" stop-color="#1a1a1a"/>
    </linearGradient>
    <linearGradient id="qrAccent" x1="0%" y1="0%" x2="100%" y2="100%">
      <stop offset="0%" stop-color="#e8457a"/>
      <stop offset="20%" stop-color="#e06830"/>
      <stop offset="40%" stop-color="#d4a017"/>
      <stop offset="60%" stop-color="#2db84d"/>
      <stop offset="80%" stop-color="#2b8fce"/>
      <stop offset="100%" stop-color="#8b5cf6"/>
    </linearGradient>
  </defs>
  <rect width="334" height="334" fill="white" rx="8" ry="8"/>
  <rect x="2" y="2" width="9" height="9" rx="2.5" ry="2.5" fill="url(#qrGrad)"/><rect x="12" y="2" width="9" height="9" rx="2.5" ry="2.5" fill="url(#qrGrad)"/><rect x="22" y="2" width="9" height="9" rx="2.5" ry="2.5" fill="url(#qrGrad)"/><rect x="32" y="2" width="9" height="9" rx="2.5" ry="2.5" fill="url(#qrGrad)"/><rect x="42" y="2" width="9" height="9" rx="2.5" ry="2.5" fill="url(#qrGrad)"/><rect x="52" y="2" width="9" height="9" rx="2.5" ry="2.5" fill="url(#qrGrad)"/><rect x="62" y="2" width="9" height="9" rx="2.5" ry="2.5" fill="url(#qrGrad)"/><rect x="2" y="12" width="9" height="9" rx="2.5" ry="2.5" fill="url(#qrGrad)"/><rect x="12" y="12" width="9" height="9" rx="2.5" ry="2.5" fill="url(#qrGrad)"/><rect x="22" y="12" width="9" height="9" rx="2.5" ry="2.5" fill="url(#qrGrad)"/><rect x="32" y="12" width="9" height="9" rx="2.5" ry="2.5" fill="url(#qrGrad)"/><rect x="42" y="12" width="9" height="9" rx="2.5" ry="2.5" fill="url(#qrGrad)"/><rect x="2" y="22" width="9" height="9" rx="2.5" ry="2.5" fill="url(#qrGrad)"/><rect x="12" y="22" width="9" height="9" rx="2.5" ry="2.5" fill="url(#qrGrad)"/><rect x="22" y="22" width="9" height="9" rx="2.5" ry="2.5" fill="url(#qrGrad)"/><rect x="2" y="32" width="9" height="9" rx="2.5" ry="2.5" fill="url(#qrGrad)"/><rect x="12" y="32" width="9" height="9" rx="2.5" ry="2.5" fill="url(#qrGrad)"/><rect x="22" y="32" width="9" height="9" rx="2.5" ry="2.5" fill="url(#qrGrad)"/><rect x="2" y="42" width="9" height="9" rx="2.5" ry="2.5" fill="url(#qrGrad)"/><rect x="12" y="42" width="9" height="9" rx="2.5" ry="2.5" fill="url(#qrGrad)"/><rect x="22" y="42" width="9" height="9" rx="2.5" ry="2.5" fill="url(#qrGrad)"/><rect x="32" y="42" width="9" height="9" rx="2.5" ry="2.5" fill="url(#qrGrad)"/><rect x="42" y="42" width="9" height="9" rx="2.5" ry="2.5" fill="url(#qrGrad)"/><rect x="52" y="42" width="9" height="9" rx="2.5" ry="2.5" fill="url(#qrGrad)"/><rect x="62" y="42" width="9" height="9" rx="2.5" ry="2.5" fill="url(#qrGrad)"/><rect x="2" y="52" width="9" height="9" rx="2.5" ry="2.5" fill="url(#qrGrad)"/><rect x="12" y="52" width="9" height="9" rx="2.5" ry="2.5" fill="url(#qrGrad)"/><rect x="22" y="52" width="9" height="9" rx="2.5" ry="2.5" fill="url(#qrGrad)"/><rect x="2" y="62" width="9" height="9" rx="2.5" ry="2.5" fill="url(#qrGrad)"/><rect x="12" y="62" width="9" height="9" rx="2.5" ry="2.5" fill="url(#qrGrad)"/><rect x="22" y="62" width="9" height="9" rx="2.5" ry="2.5" fill="url(#qrGrad)"/><rect x="32" y="62" width="9" height="9" rx="2.5" ry="2.5" fill="url(#qrGrad)"/><rect x="42" y="62" width="9" height="9" rx="2.5" ry="2.5" fill="url(#qrGrad)"/><rect x="52" y="62" width="9" height="9" rx="2.5" ry="2.5" fill="url(#qrGrad)"/><rect x="62" y="62" width="9" height="9" rx="2.5" ry="2.5" fill="url(#qrGrad)"/><rect x="82" y="72" width="9" height="9" rx="2.5" ry="2.5" fill="url(#qrGrad)"/><rect x="92" y="72" width="9" height="9" rx="2.5" ry="2.5" fill="url(#qrGrad)"/><rect x="102" y="72" width="9" height="9" rx="2.5" ry="2.5" fill="url(#qrGrad)"/><rect x="112" y="72" width="9" height="9" rx="2.5" ry="2.5" fill="url(#qrGrad)"/><rect x="122" y="72" width="9" height="9" rx="2.5" ry="2.5" fill="url(#qrGrad)"/><rect x="2" y="82" width="9" height="9" rx="2.5" ry="2.5" fill="url(#qrGrad)"/><rect x="12" y="82" width="9" height="9" rx="2.5" ry="2.5" fill="url(#qrGrad)"/><rect x="22" y="82" width="9" height="9" rx="2.5" ry="2.5" fill="url(#qrGrad)"/><rect x="32" y="82" width="9" height="9" rx="2.5" ry="2.5" fill="url(#qrGrad)"/><rect x="42" y="82" width="9" height="9" rx="2.5" ry="2.5" fill="url(#qrGrad)"/><rect x="12" y="92" width="9" height="9" rx="2.5" ry="2.5" fill="url(#qrGrad)"/><rect x="22" y="92" width="9" height="9" rx="2.5" ry="2.5" fill="url(#qrGrad)"/><rect x="32" y="92" width="9" height="9" rx="2.5" ry="2.5" fill="url(#qrGrad)"/><rect x="12" y="102" width="9" height="9" rx="2.5" ry="2.5" fill="url(#qrGrad)"/><rect x="22" y="102" width="9" height="9" rx="2.5" ry="2.5" fill="url(#qrGrad)"/><rect x="32" y="102" width="9" height="9" rx="2.5" ry="2.5" fill="url(#qrGrad)"/><rect x="42" y="102" width="9" height="9" rx="2.5" ry="2.5" fill="url(#qrGrad)"/><rect x="52" y="102" width="9" height="9" rx="2.5" ry="2.5" fill="url(#qrGrad)"/><rect x="62" y="102" width="9" height="9" rx="2.5" ry="2.5" fill="url(#qrGrad)"/><rect x="72" y="102" width="9" height="9" rx="2.5" ry="2.5" fill="url(#qrGrad)"/><rect x="82" y="102" width="9" height="9" rx="2.5" ry="2.5" fill="url(#qrGrad)"/><rect x="92" y="102" width="9" height="9" rx="2.5" ry="2.5" fill="url(#qrGrad)"/><rect x="2" y="112" width="9" height="9" rx="2.5" ry="2.5" fill="url(#qrGrad)"/><rect x="12" y="112" width="9" height="9" rx="2.5" ry="2.5" fill="url(#qrGrad)"/><rect x="22" y="112" width="9" height="9" rx="2.5" ry="2.5" fill="url(#qrGrad)"/><rect x="2" y="122" width="9" height="9" rx="2.5" ry="2.5" fill="url(#qrGrad)"/><rect x="12" y="122" width="9" height="9" rx="2.5" ry="2.5" fill="url(#qrGrad)"/><rect x="22" y="122" width="9" height="9" rx="2.5" ry="2.5" fill="url(#qrGrad)"/><rect x="32" y="122" width="9" height="9" rx="2.5" ry="2.5" fill="url(#qrGrad)"/><rect x="42" y="122" width="9" height="9" rx="2.5" ry="2.5" fill="url(#qrGrad)"/><rect x="52" y="122" width="9" height="9" rx="2.5" ry="2.5" fill="url(#qrGrad)"/><rect x="62" y="122" width="9" height="9" rx="2.5" ry="2.5" fill="url(#qrGrad)"/><rect x="72" y="122" width="9" height="9" rx="2.5" ry="2.5" fill="url(#qrGrad)"/><rect x="32" y="132" width="9" height="9" rx="2.5" ry="2.5" fill="url(#qrGrad)"/><rect x="42" y="132" width="9" height="9" rx="2.5" ry="2.5" fill="url(#qrGrad)"/><rect x="52" y="132" width="9" height="9" rx="2.5" ry="2.5" fill="url(#qrGrad)"/><rect x="62" y="132" width="9" height="9" rx="2.5" ry="2.5" fill="url(#qrGrad)"/><rect x="72" y="132" width="9" height="9" rx="2.5" ry="2.5" fill="url(#qrGrad)"/><rect x="82" y="132" width="9" height="9" rx="2.5" ry="2.5" fill="url(#qrGrad)"/><rect x="2" y="142" width="9" height="9" rx="2.5" ry="2.5" fill="url(#qrGrad)"/><rect x="12" y="142" width="9" height="9" rx="2.5" ry="2.5" fill="url(#qrGrad)"/><rect x="22" y="142" width="9" height="9" rx="2.5" ry="2.5" fill="url(#qrGrad)"/><rect x="32" y="142" width="9" height="9" rx="2.5" ry="2.5" fill="url(#qrGrad)"/><rect x="42" y="142" width="9" height="9" rx="2.5" ry="2.5" fill="url(#qrGrad)"/><rect x="12" y="152" width="9" height="9" rx="2.5" ry="2.5" fill="url(#qrGrad)"/><rect x="22" y="152" width="9" height="9" rx="2.5" ry="2.5" fill="url(#qrGrad)"/><rect x="32" y="152" width="9" height="9" rx="2.5" ry="2.5" fill="url(#qrGrad)"/><rect x="2" y="162" width="9" height="9" rx="2.5" ry="2.5" fill="url(#qrGrad)"/><rect x="12" y="162" width="9" height="9" rx="2.5" ry="2.5" fill="url(#qrGrad)"/><rect x="22" y="162" width="9" height="9" rx="2.5" ry="2.5" fill="url(#qrGrad)"/><rect x="22" y="172" width="9" height="9" rx="2.5" ry="2.5" fill="url(#qrGrad)"/><rect x="32" y="172" width="9" height="9" rx="2.5" ry="2.5" fill="url(#qrGrad)"/><rect x="42" y="172" width="9" height="9" rx="2.5" ry="2.5" fill="url(#qrGrad)"/><rect x="52" y="172" width="9" height="9" rx="2.5" ry="2.5" fill="url(#qrGrad)"/><rect x="62" y="172" width="9" height="9" rx="2.5" ry="2.5" fill="url(#qrGrad)"/><rect x="72" y="172" width="9" height="9" rx="2.5" ry="2.5" fill="url(#qrGrad)"/><rect x="2" y="182" width="9" height="9" rx="2.5" ry="2.5" fill="url(#qrGrad)"/><rect x="12" y="182" width="9" height="9" rx="2.5" ry="2.5" fill="url(#qrGrad)"/><rect x="22" y="182" width="9" height="9" rx="2.5" ry="2.5" fill="url(#qrGrad)"/><rect x="32" y="182" width="9" height="9" rx="2.5" ry="2.5" fill="url(#qrGrad)"/><rect x="42" y="182" width="9" height="9" rx="2.5" ry="2.5" fill="url(#qrGrad)"/><rect x="22" y="192" width="9" height="9" rx="2.5" ry="2.5" fill="url(#qrGrad)"/><rect x="32" y="192" width="9" height="9" rx="2.5" ry="2.5" fill="url(#qrGrad)"/><rect x="42" y="192" width="9" height="9" rx="2.5" ry="2.5" fill="url(#qrGrad)"/><rect x="52" y="192" width="9" height="9" rx="2.5" ry="2.5" fill="url(#qrGrad)"/><rect x="62" y="192" width="9" height="9" rx="2.5" ry="2.5" fill="url(#qrGrad)"/><rect x="72" y="192" width="9" height="9" rx="2.5" ry="2.5" fill="url(#qrGrad)"/><rect x="82" y="192" width="9" height="9" rx="2.5" ry="2.5" fill="url(#qrGrad)"/><rect x="12" y="202" width="9" height="9" rx="2.5" ry="2.5" fill="url(#qrGrad)"/><rect x="22" y="202" width="9" height="9" rx="2.5" ry="2.5" fill="url(#qrGrad)"/><rect x="32" y="202" width="9" height="9" rx="2.5" ry="2.5" fill="url(#qrGrad)"/><rect x="42" y="202" width="9" height="9" rx="2.5" ry="2.5" fill="url(#qrGrad)"/><rect x="2" y="212" width="9" height="9" rx="2.5" ry="2.5" fill="url(#qrGrad)"/><rect x="12" y="212" width="9" height="9" rx="2.5" ry="2.5" fill="url(#qrGrad)"/><rect x="2" y="222" width="9" height="9" rx="2.5" ry="2.5" fill="url(#qrGrad)"/><rect x="12" y="222" width="9" height="9" rx="2.5" ry="2.5" fill="url(#qrGrad)"/><rect x="22" y="222" width="9" height="9" rx="2.5" ry="2.5" fill="url(#qrGrad)"/><rect x="32" y="222" width="9" height="9" rx="2.5" ry="2.5" fill="url(#qrGrad)"/><rect x="2" y="232" width="9" height="9" rx="2.5" ry="2.5" fill="url(#qrGrad)"/><rect x="12" y="232" width="9" height="9" rx="2.5" ry="2.5" fill="url(#qrGrad)"/><rect x="22" y="232" width="9" height="9" rx="2.5" ry="2.5" fill="url(#qrGrad)"/><rect x="32" y="232" width="9" height="9" rx="2.5" ry="2.5" fill="url(#qrGrad)"/><rect x="42" y="232" width="9" height="9" rx="2.5" ry="2.5" fill="url(#qrGrad)"/><rect x="52" y="232" width="9" height="9" rx="2.5" ry="2.5" fill="url(#qrGrad)"/><rect x="62" y="232" width="9" height="9" rx="2.5" ry="2.5" fill="url(#qrGrad)"/><rect x="72" y="232" width="9" height="9" rx="2.5" ry="2.5" fill="url(#qrGrad)"/><rect x="82" y="232" width="9" height="9" rx="2.5" ry="2.5" fill="url(#qrGrad)"/><rect x="2" y="242" width="9" height="9" rx="2.5" ry="2.5" fill="url(#qrGrad)"/><rect x="12" y="242" width="9" height="9" rx="2.5" ry="2.5" fill="url(#qrGrad)"/><rect x="22" y="242" width="9" height="9" rx="2.5" ry="2.5" fill="url(#qrGrad)"/><rect x="32" y="242" width="9" height="9" rx="2.5" ry="2.5" fill="url(#qrGrad)"/><rect x="42" y="242" width="9" height="9" rx="2.5" ry="2.5" fill="url(#qrGrad)"/><rect x="82" y="252" width="9" height="9" rx="2.5" ry="2.5" fill="url(#qrGrad)"/><rect x="92" y="252" width="9" height="9" rx="2.5" ry="2.5" fill="url(#qrGrad)"/><rect x="102" y="252" width="9" height="9" rx="2.5" ry="2.5" fill="url(#qrGrad)"/><rect x="2" y="262" width="9" height="9" rx="2.5" ry="2.5" fill="url(#qrGrad)"/><rect x="12" y="262" width="9" height="9" rx="2.5" ry="2.5" fill="url(#qrGrad)"/><rect x="22" y="262" width="9" height="9" rx="2.5" ry="2.5" fill="url(#qrGrad)"/><rect x="32" y="262" width="9" height="9" rx="2.5" ry="2.5" fill="url(#qrGrad)"/><rect x="42" y="262" width="9" height="9" rx="2.5" ry="2.5" fill="url(#qrGrad)"/><rect x="52" y="262" width="9" height="9" rx="2.5" ry="2.5" fill="url(#qrGrad)"/><rect x="62" y="262" width="9" height="9" rx="2.5" ry="2.5" fill="url(#qrGrad)"/><rect x="2" y="272" width="9" height="9" rx="2.5" ry="2.5" fill="url(#qrGrad)"/><rect x="12" y="272" width="9" height="9" rx="2.5" ry="2.5" fill="url(#qrGrad)"/><rect x="22" y="272" width="9" height="9" rx="2.5" ry="2.5" fill="url(#qrGrad)"/><rect x="32" y="272" width="9" height="9" rx="2.5" ry="2.5" fill="url(#qrGrad)"/><rect x="42" y="272" width="9" height="9" rx="2.5" ry="2.5" fill="url(#qrGrad)"/><rect x="2" y="282" width="9" height="9" rx="2.5" ry="2.5" fill="url(#qrGrad)"/><rect x="12" y="282" width="9" height="9" rx="2.5" ry="2.5" fill="url(#qrGrad)"/><rect x="22" y="282" width="9" height="9" rx="2.5" ry="2.5" fill="url(#qrGrad)"/><rect x="32" y="282" width="9" height="9" rx="2.5" ry="2.5" fill="url(#qrGrad)"/><rect x="42" y="282" width="9" height="9" rx="2.5" ry="2.5" fill="url(#qrGrad)"/><rect x="52" y="282" width="9" height="9" rx="2.5" ry="2.5" fill="url(#qrGrad)"/><rect x="2" y="292" width="9" height="9" rx="2.5" ry="2.5" fill="url(#qrGrad)"/><rect x="12" y="292" width="9" height="9" rx="2.5" ry="2.5" fill="url(#qrGrad)"/><rect x="22" y="292" width="9" height="9" rx="2.5" ry="2.5" fill="url(#qrGrad)"/><rect x="32" y="292" width="9" height="9" rx="2.5" ry="2.5" fill="url(#qrGrad)"/><rect x="42" y="292" width="9" height="9" rx="2.5" ry="2.5" fill="url(#qrGrad)"/><rect x="2" y="302" width="9" height="9" rx="2.5" ry="2.5" fill="url(#qrGrad)"/><rect x="12" y="302" width="9" height="9" rx="2.5" ry="2.5" fill="url(#qrGrad)"/><rect x="22" y="302" width="9" height="9" rx="2.5" ry="2.5" fill="url(#qrGrad)"/><rect x="32" y="302" width="9" height="9" rx="2.5" ry="2.5" fill="url(#qrGrad)"/><rect x="2" y="312" width="9" height="9" rx="2.5" ry="2.5" fill="url(#qrGrad)"/><rect x="12" y="312" width="9" height="9" rx="2.5" ry="2.5" fill="url(#qrGrad)"/><rect x="22" y="312" width="9" height="9" rx="2.5" ry="2.5" fill="url(#qrGrad)"/><rect x="2" y="322" width="9" height="9" rx="2.5" ry="2.5" fill="url(#qrGrad)"/><rect x="12" y="322" width="9" height="9" rx="2.5" ry="2.5" fill="url(#qrGrad)"/><rect x="22" y="322" width="9" height="9" rx="2.5" ry="2.5" fill="url(#qrGrad)"/><rect x="32" y="322" width="9" height="9" rx="2.5" ry="2.5" fill="url(#qrGrad)"/><rect x="42" y="322" width="9" height="9" rx="2.5" ry="2.5" fill="url(#qrGrad)"/><rect x="52" y="322" width="9" height="9" rx="2.5" ry="2.5" fill="url(#qrGrad)"/><rect x="62" y="322" width="9" height="9" rx="2.5" ry="2.5" fill="url(#qrGrad)"/>
  <!-- Rainbow accent border around finder patterns -->
  <rect x="2" y="2" width="70" height="70" rx="6" ry="6" fill="none" stroke="url(#qrAccent)" stroke-width="2.5"/>
  <rect x="262" y="2" width="70" height="70" rx="6" ry="6" fill="none" stroke="url(#qrAccent)" stroke-width="2.5"/>
  <rect x="2" y="262" width="70" height="70" rx="6" ry="6" fill="none" stroke="url(#qrAccent)" stroke-width="2.5"/>
</svg>