<svg xmlns="http://www.w3.org/2000/svg" width="338" height="338" viewBox="0 0 338 338">
  <defs>
    <linearGradient id="qrGrad" x1="0%" y1="0%" x2="100%" y2="100%">
      <stop offset="0%" stop-color="#e8457a"/>
      <stop offset="25%" stop-color="#1a1a1a"/>
      <stop offset="50%" stop-color="#1a1a1a"/>
      <stop offset="75%" stop-color="#1a1a1a"/>
      <stop offset="100%" stop-color="#8b5cf6"/>
    </linearGradient>
    <linearGradient id="qrAccent" x1="0%" y1="0%" x2="100%" y2="100%">
      <stop offset="0%" stop-color="#e8457a"/>
      <stop offset="20%" stop-color="#e06830"/>
      <stop offset="40%" stop-color="#d4a017"/>
      <stop offset="60%" stop-color="#2db84d"/>
      <stop offset="80%" stop-color="#2b8fce"/>
      <stop offset="100%" stop-color="#8b5cf6"/>
    </linearGradient>
  </defs>
  <rect width="338" height="338" fill="white" rx="10" ry="10"/>
  <rect x="4" y="4" width="9" height="9" rx="2.8" ry="2.8" fill="url(#qrGrad)"/><rect x="14" y="4" width="9" height="9" rx="2.8" ry="2.8" fill="url(#qrGrad)"/><rect x="24" y="4" width="9" height="9" rx="2.8" ry="2.8" fill="url(#qrGrad)"/><rect x="34" y="4" width="9" height="9" rx="2.8" ry="2.8" fill="url(#qrGrad)"/><rect x="44" y="4" width="9" height="9" rx="2.8" ry="2.8" fill="url(#qrGrad)"/><rect x="54" y="4" width="9" height="9" rx="2.8" ry="2.8" fill="url(#qrGrad)"/><rect x="64" y="4" width="9" height="9" rx="2.8" ry="2.8" fill="url(#qrGrad)"/><rect x="124" y="4" width="9" height="9" rx="2.8" ry="2.8" fill="url(#qrGrad)"/><rect x="134" y="4" width="9" height="9" rx="2.8" ry="2.8" fill="url(#qrGrad)"/><rect x="144" y="4" width="9" height="9" rx="2.8" ry="2.8" fill="url(#qrGrad)"/><rect x="164" y="4" width="9" height="9" rx="2.8" ry="2.8" fill="url(#qrGrad)"/><rect x="174" y="4" width="9" height="9" rx="2.8" ry="2.8" fill="url(#qrGrad)"/><rect x="184" y="4" width="9" height="9" rx="2.8" ry="2.8" fill="url(#qrGrad)"/><rect x="194" y="4" width="9" height="9" rx="2.8" ry="2.8" fill="url(#qrGrad)"/><rect x="204" y="4" width="9" height="9" rx="2.8" ry="2.8" fill="url(#qrGrad)"/><rect x="234" y="4" width="9" height="9" rx="2.8" ry="2.8" fill="url(#qrGrad)"/><rect x="264" y="4" width="9" height="9" rx="2.8" ry="2.8" fill="url(#qrGrad)"/><rect x="274" y="4" width="9" height="9" rx="2.8" ry="2.8" fill="url(#qrGrad)"/><rect x="284" y="4" width="9" height="9" rx="2.8" ry="2.8" fill="url(#qrGrad)"/><rect x="294" y="4" width="9" height="9" rx="2.8" ry="2.8" fill="url(#qrGrad)"/><rect x="304" y="4" width="9" height="9" rx="2.8" ry="2.8" fill="url(#qrGrad)"/><rect x="314" y="4" width="9" height="9" rx="2.8" ry="2.8" fill="url(#qrGrad)"/><rect x="324" y="4" width="9" height="9" rx="2.8" ry="2.8" fill="url(#qrGrad)"/><rect x="4" y="14" width="9" height="9" rx="2.8" ry="2.8" fill="url(#qrGrad)"/><rect x="64" y="14" width="9" height="9" rx="2.8" ry="2.8" fill="url(#qrGrad)"/><rect x="94" y="14" width="9" height="9" rx="2.8" ry="2.8" fill="url(#qrGrad)"/><rect x="114" y="14" width="9" height="9" rx="2.8" ry="2.8" fill="url(#qrGrad)"/><rect x="134" y="14" width="9" height="9" rx="2.8" ry="2.8" fill="url(#qrGrad)"/><rect x="144" y="14" width="9" height="9" rx="2.8" ry="2.8" fill="url(#qrGrad)"/><rect x="154" y="14" width="9" height="9" rx="2.8" ry="2.8" fill="url(#qrGrad)"/><rect x="164" y="14" width="9" height="9" rx="2.8" ry="2.8" fill="url(#qrGrad)"/><rect x="174" y="14" width="9" height="9" rx="2.8" ry="2.8" fill="url(#qrGrad)"/><rect x="204" y="14" width="9" height="9" rx="2.8" ry="2.8" fill="url(#qrGrad)"/><rect x="214" y="14" width="9" height="9" rx="2.8" ry="2.8" fill="url(#qrGrad)"/><rect x="244" y="14" width="9" height="9" rx="2.8" ry="2.8" fill="url(#qrGrad)"/><rect x="264" y="14" width="9" height="9" rx="2.8" ry="2.8" fill="url(#qrGrad)"/><rect x="324" y="14" width="9" height="9" rx="2.8" ry="2.8" fill="url(#qrGrad)"/><rect x="4" y="24" width="9" height="9" rx="2.8" ry="2.8" fill="url(#qrGrad)"/><rect x="24" y="24" width="9" height="9" rx="2.8" ry="2.8" fill="url(#qrGrad)"/><rect x="34" y="24" width="9" height="9" rx="2.8" ry="2.8" fill="url(#qrGrad)"/><rect x="44" y="24" width="9" height="9" rx="2.8" ry="2.8" fill="url(#qrGrad)"/><rect x="64" y="24" width="9" height="9" rx="2.8" ry="2.8" fill="url(#qrGrad)"/><rect x="84" y="24" width="9" height="9" rx="2.8" ry="2.8" fill="url(#qrGrad)"/><rect x="94" y="24" width="9" height="9" rx="2.8" ry="2.8" fill="url(#qrGrad)"/><rect x="124" y="24" width="9" height="9" rx="2.8" ry="2.8" fill="url(#qrGrad)"/><rect x="134" y="24" width="9" height="9" rx="2.8" ry="2.8" fill="url(#qrGrad)"/><rect x="164" y="24" width="9" height="9" rx="2.8" ry="2.8" fill="url(#qrGrad)"/><rect x="194" y="24" width="9" height="9" rx="2.8" ry="2.8" fill="url(#qrGrad)"/><rect x="204" y="24" width="9" height="9" rx="2.8" ry="2.8" fill="url(#qrGrad)"/><rect x="214" y="24" width="9" height="9" rx="2.8" ry="2.8" fill="url(#qrGrad)"/><rect x="234" y="24" width="9" height="9" rx="2.8" ry="2.8" fill="url(#qrGrad)"/><rect x="244" y="24" width="9" height="9" rx="2.8" ry="2.8" fill="url(#qrGrad)"/><rect x="264" y="24" width="9" height="9" rx="2.8" ry="2.8" fill="url(#qrGrad)"/><rect x="284" y="24" width="9" height="9" rx="2.8" ry="2.8" fill="url(#qrGrad)"/><rect x="294" y="24" width="9" height="9" rx="2.8" ry="2.8" fill="url(#qrGrad)"/><rect x="304" y="24" width="9" height="9" rx="2.8" ry="2.8" fill="url(#qrGrad)"/><rect x="324" y="24" width="9" height="9" rx="2.8" ry="2.8" fill="url(#qrGrad)"/><rect x="4" y="34" width="9" height="9" rx="2.8" ry="2.8" fill="url(#qrGrad)"/><rect x="24" y="34" width="9" height="9" rx="2.8" ry="2.8" fill="url(#qrGrad)"/><rect x="34" y="34" width="9" height="9" rx="2.8" ry="2.8" fill="url(#qrGrad)"/><rect x="44" y="34" width="9" height="9" rx="2.8" ry="2.8" fill="url(#qrGrad)"/><rect x="64" y="34" width="9" height="9" rx="2.8" ry="2.8" fill="url(#qrGrad)"/><rect x="84" y="34" width="9" height="9" rx="2.8" ry="2.8" fill="url(#qrGrad)"/><rect x="104" y="34" width="9" height="9" rx="2.8" ry="2.8" fill="url(#qrGrad)"/><rect x="144" y="34" width="9" height="9" rx="2.8" ry="2.8" fill="url(#qrGrad)"/><rect x="164" y="34" width="9" height="9" rx="2.8" ry="2.8" fill="url(#qrGrad)"/><rect x="174" y="34" width="9" height="9" rx="2.8" ry="2.8" fill="url(#qrGrad)"/><rect x="194" y="34" width="9" height="9" rx="2.8" ry="2.8" fill="url(#qrGrad)"/><rect x="224" y="34" width="9" height="9" rx="2.8" ry="2.8" fill="url(#qrGrad)"/><rect x="234" y="34" width="9" height="9" rx="2.8" ry="2.8" fill="url(#qrGrad)"/><rect x="244" y="34" width="9" height="9" rx="2.8" ry="2.8" fill="url(#qrGrad)"/><rect x="264" y="34" width="9" height="9" rx="2.8" ry="2.8" fill="url(#qrGrad)"/><rect x="284" y="34" width="9" height="9" rx="2.8" ry="2.8" fill="url(#qrGrad)"/><rect x="294" y="34" width="9" height="9" rx="2.8" ry="2.8" fill="url(#qrGrad)"/><rect x="304" y="34" width="9" height="9" rx="2.8" ry="2.8" fill="url(#qrGrad)"/><rect x="324" y="34" width="9" height="9" rx="2.8" ry="2.8" fill="url(#qrGrad)"/><rect x="4" y="44" width="9" height="9" rx="2.8" ry="2.8" fill="url(#qrGrad)"/><rect x="24" y="44" width="9" height="9" rx="2.8" ry="2.8" fill="url(#qrGrad)"/><rect x="34" y="44" width="9" height="9" rx="2.8" ry="2.8" fill="url(#qrGrad)"/><rect x="44" y="44" width="9" height="9" rx="2.8" ry="2.8" fill="url(#qrGrad)"/><rect x="64" y="44" width="9" height="9" rx="2.8" ry="2.8" fill="url(#qrGrad)"/><rect x="84" y="44" width="9" height="9" rx="2.8" ry="2.8" fill="url(#qrGrad)"/><rect x="104" y="44" width="9" height="9" rx="2.8" ry="2.8" fill="url(#qrGrad)"/><rect x="124" y="44" width="9" height="9" rx="2.8" ry="2.8" fill="url(#qrGrad)"/><rect x="154" y="44" width="9" height="9" rx="2.8" ry="2.8" fill="url(#qrGrad)"/><rect x="174" y="44" width="9" height="9" rx="2.8" ry="2.8" fill="url(#qrGrad)"/><rect x="184" y="44" width="9" height="9" rx="2.8" ry="2.8" fill="url(#qrGrad)"/><rect x="194" y="44" width="9" height="9" rx="2.8" ry="2.8" fill="url(#qrGrad)"/><rect x="204" y="44" width="9" height="9" rx="2.8" ry="2.8" fill="url(#qrGrad)"/><rect x="214" y="44" width="9" height="9" rx="2.8" ry="2.8" fill="url(#qrGrad)"/><rect x="224" y="44" width="9" height="9" rx="2.8" ry="2.8" fill="url(#qrGrad)"/><rect x="234" y="44" width="9" height="9" rx="2.8" ry="2.8" fill="url(#qrGrad)"/><rect x="264" y="44" width="9" height="9" rx="2.8" ry="2.8" fill="url(#qrGrad)"/><rect x="284" y="44" width="9" height="9" rx="2.8" ry="2.8" fill="url(#qrGrad)"/><rect x="294" y="44" width="9" height="9" rx="2.8" ry="2.8" fill="url(#qrGrad)"/><rect x="304" y="44" width="9" height="9" rx="2.8" ry="2.8" fill="url(#qrGrad)"/><rect x="324" y="44" width="9" height="9" rx="2.8" ry="2.8" fill="url(#qrGrad)"/><rect x="4" y="54" width="9" height="9" rx="2.8" ry="2.8" fill="url(#qrGrad)"/><rect x="64" y="54" width="9" height="9" rx="2.8" ry="2.8" fill="url(#qrGrad)"/><rect x="84" y="54" width="9" height="9" rx="2.8" ry="2.8" fill="url(#qrGrad)"/><rect x="94" y="54" width="9" height="9" rx="2.8" ry="2.8" fill="url(#qrGrad)"/><rect x="114" y="54" width="9" height="9" rx="2.8" ry="2.8" fill="url(#qrGrad)"/><rect x="124" y="54" width="9" height="9" rx="2.8" ry="2.8" fill="url(#qrGrad)"/><rect x="144" y="54" width="9" height="9" rx="2.8" ry="2.8" fill="url(#qrGrad)"/><rect x="154" y="54" width="9" height="9" rx="2.8" ry="2.8" fill="url(#qrGrad)"/><rect x="164" y="54" width="9" height="9" rx="2.8" ry="2.8" fill="url(#qrGrad)"/><rect x="184" y="54" width="9" height="9" rx="2.8" ry="2.8" fill="url(#qrGrad)"/><rect x="204" y="54" width="9" height="9" rx="2.8" ry="2.8" fill="url(#qrGrad)"/><rect x="214" y="54" width="9" height="9" rx="2.8" ry="2.8" fill="url(#qrGrad)"/><rect x="224" y="54" width="9" height="9" rx="2.8" ry="2.8" fill="url(#qrGrad)"/><rect x="244" y="54" width="9" height="9" rx="2.8" ry="2.8" fill="url(#qrGrad)"/><rect x="264" y="54" width="9" height="9" rx="2.8" ry="2.8" fill="url(#qrGrad)"/><rect x="324" y="54" width="9" height="9" rx="2.8" ry="2.8" fill="url(#qrGrad)"/><rect x="4" y="64" width="9" height="9" rx="2.8" ry="2.8" fill="url(#qrGrad)"/><rect x="14" y="64" width="9" height="9" rx="2.8" ry="2.8" fill="url(#qrGrad)"/><rect x="24" y="64" width="9" height="9" rx="2.8" ry="2.8" fill="url(#qrGrad)"/><rect x="34" y="64" width="9" height="9" rx="2.8" ry="2.8" fill="url(#qrGrad)"/><rect x="44" y="64" width="9" height="9" rx="2.8" ry="2.8" fill="url(#qrGrad)"/><rect x="54" y="64" width="9" height="9" rx="2.8" ry="2.8" fill="url(#qrGrad)"/><rect x="64" y="64" width="9" height="9" rx="2.8" ry="2.8" fill="url(#qrGrad)"/><rect x="84" y="64" width="9" height="9" rx="2.8" ry="2.8" fill="url(#qrGrad)"/><rect x="104" y="64" width="9" height="9" rx="2.8" ry="2.8" fill="url(#qrGrad)"/><rect x="124" y="64" width="9" height="9" rx="2.8" ry="2.8" fill="url(#qrGrad)"/><rect x="144" y="64" width="9" height="9" rx="2.8" ry="2.8" fill="url(#qrGrad)"/><rect x="164" y="64" width="9" height="9" rx="2.8" ry="2.8" fill="url(#qrGrad)"/><rect x="184" y="64" width="9" height="9" rx="2.8" ry="2.8" fill="url(#qrGrad)"/><rect x="204" y="64" width="9" height="9" rx="2.8" ry="2.8" fill="url(#qrGrad)"/><rect x="224" y="64" width="9" height="9" rx="2.8" ry="2.8" fill="url(#qrGrad)"/><rect x="244" y="64" width="9" height="9" rx="2.8" ry="2.8" fill="url(#qrGrad)"/><rect x="264" y="64" width="9" height="9" rx="2.8" ry="2.8" fill="url(#qrGrad)"/><rect x="274" y="64" width="9" height="9" rx="2.8" ry="2.8" fill="url(#qrGrad)"/><rect x="284" y="64" width="9" height="9" rx="2.8" ry="2.8" fill="url(#qrGrad)"/><rect x="294" y="64" width="9" height="9" rx="2.8" ry="2.8" fill="url(#qrGrad)"/><rect x="304" y="64" width="9" height="9" rx="2.8" ry="2.8" fill="url(#qrGrad)"/><rect x="314" y="64" width="9" height="9" rx="2.8" ry="2.8" fill="url(#qrGrad)"/><rect x="324" y="64" width="9" height="9" rx="2.8" ry="2.8" fill="url(#qrGrad)"/><rect x="84" y="74" width="9" height="9" rx="2.8" ry="2.8" fill="url(#qrGrad)"/><rect x="94" y="74" width="9" height="9" rx="2.8" ry="2.8" fill="url(#qrGrad)"/><rect x="104" y="74" width="9" height="9" rx="2.8" ry="2.8" fill="url(#qrGrad)"/><rect x="114" y="74" width="9" height="9" rx="2.8" ry="2.8" fill="url(#qrGrad)"/><rect x="124" y="74" width="9" height="9" rx="2.8" ry="2.8" fill="url(#qrGrad)"/><rect x="154" y="74" width="9" height="9" rx="2.8" ry="2.8" fill="url(#qrGrad)"/><rect x="194" y="74" width="9" height="9" rx="2.8" ry="2.8" fill="url(#qrGrad)"/><rect x="214" y="74" width="9" height="9" rx="2.8" ry="2.8" fill="url(#qrGrad)"/><rect x="224" y="74" width="9" height="9" rx="2.8" ry="2.8" fill="url(#qrGrad)"/><rect x="234" y="74" width="9" height="9" rx="2.8" ry="2.8" fill="url(#qrGrad)"/><rect x="4" y="84" width="9" height="9" rx="2.8" ry="2.8" fill="url(#qrGrad)"/><rect x="24" y="84" width="9" height="9" rx="2.8" ry="2.8" fill="url(#qrGrad)"/><rect x="34" y="84" width="9" height="9" rx="2.8" ry="2.8" fill="url(#qrGrad)"/><rect x="44" y="84" width="9" height="9" rx="2.8" ry="2.8" fill="url(#qrGrad)"/><rect x="54" y="84" width="9" height="9" rx="2.8" ry="2.8" fill="url(#qrGrad)"/><rect x="64" y="84" width="9" height="9" rx="2.8" ry="2.8" fill="url(#qrGrad)"/><rect x="124" y="84" width="9" height="9" rx="2.8" ry="2.8" fill="url(#qrGrad)"/><rect x="134" y="84" width="9" height="9" rx="2.8" ry="2.8" fill="url(#qrGrad)"/><rect x="144" y="84" width="9" height="9" rx="2.8" ry="2.8" fill="url(#qrGrad)"/><rect x="154" y="84" width="9" height="9" rx="2.8" ry="2.8" fill="url(#qrGrad)"/><rect x="174" y="84" width="9" height="9" rx="2.8" ry="2.8" fill="url(#qrGrad)"/><rect x="224" y="84" width="9" height="9" rx="2.8" ry="2.8" fill="url(#qrGrad)"/><rect x="234" y="84" width="9" height="9" rx="2.8" ry="2.8" fill="url(#qrGrad)"/><rect x="264" y="84" width="9" height="9" rx="2.8" ry="2.8" fill="url(#qrGrad)"/><rect x="274" y="84" width="9" height="9" rx="2.8" ry="2.8" fill="url(#qrGrad)"/><rect x="284" y="84" width="9" height="9" rx="2.8" ry="2.8" fill="url(#qrGrad)"/><rect x="294" y="84" width="9" height="9" rx="2.8" ry="2.8" fill="url(#qrGrad)"/><rect x="304" y="84" width="9" height="9" rx="2.8" ry="2.8" fill="url(#qrGrad)"/><rect x="14" y="94" width="9" height="9" rx="2.8" ry="2.8" fill="url(#qrGrad)"/><rect x="24" y="94" width="9" height="9" rx="2.8" ry="2.8" fill="url(#qrGrad)"/><rect x="34" y="94" width="9" height="9" rx="2.8" ry="2.8" fill="url(#qrGrad)"/><rect x="74" y="94" width="9" height="9" rx="2.8" ry="2.8" fill="url(#qrGrad)"/><rect x="174" y="94" width="9" height="9" rx="2.8" ry="2.8" fill="url(#qrGrad)"/><rect x="184" y="94" width="9" height="9" rx="2.8" ry="2.8" fill="url(#qrGrad)"/><rect x="194" y="94" width="9" height="9" rx="2.8" ry="2.8" fill="url(#qrGrad)"/><rect x="214" y="94" width="9" height="9" rx="2.8" ry="2.8" fill="url(#qrGrad)"/><rect x="234" y="94" width="9" height="9" rx="2.8" ry="2.8" fill="url(#qrGrad)"/><rect x="264" y="94" width="9" height="9" rx="2.8" ry="2.8" fill="url(#qrGrad)"/><rect x="274" y="94" width="9" height="9" rx="2.8" ry="2.8" fill="url(#qrGrad)"/><rect x="294" y="94" width="9" height="9" rx="2.8" ry="2.8" fill="url(#qrGrad)"/><rect x="304" y="94" width="9" height="9" rx="2.8" ry="2.8" fill="url(#qrGrad)"/><rect x="324" y="94" width="9" height="9" rx="2.8" ry="2.8" fill="url(#qrGrad)"/><rect x="14" y="104" width="9" height="9" rx="2.8" ry="2.8" fill="url(#qrGrad)"/><rect x="44" y="104" width="9" height="9" rx="2.8" ry="2.8" fill="url(#qrGrad)"/><rect x="54" y="104" width="9" height="9" rx="2.8" ry="2.8" fill="url(#qrGrad)"/><rect x="64" y="104" width="9" height="9" rx="2.8" ry="2.8" fill="url(#qrGrad)"/><rect x="74" y="104" width="9" height="9" rx="2.8" ry="2.8" fill="url(#qrGrad)"/><rect x="84" y="104" width="9" height="9" rx="2.8" ry="2.8" fill="url(#qrGrad)"/><rect x="94" y="104" width="9" height="9" rx="2.8" ry="2.8" fill="url(#qrGrad)"/><rect x="104" y="104" width="9" height="9" rx="2.8" ry="2.8" fill="url(#qrGrad)"/><rect x="114" y="104" width="9" height="9" rx="2.8" ry="2.8" fill="url(#qrGrad)"/><rect x="124" y="104" width="9" height="9" rx="2.8" ry="2.8" fill="url(#qrGrad)"/><rect x="154" y="104" width="9" height="9" rx="2.8" ry="2.8" fill="url(#qrGrad)"/><rect x="174" y="104" width="9" height="9" rx="2.8" ry="2.8" fill="url(#qrGrad)"/><rect x="214" y="104" width="9" height="9" rx="2.8" ry="2.8" fill="url(#qrGrad)"/><rect x="224" y="104" width="9" height="9" rx="2.8" ry="2.8" fill="url(#qrGrad)"/><rect x="254" y="104" width="9" height="9" rx="2.8" ry="2.8" fill="url(#qrGrad)"/><rect x="264" y="104" width="9" height="9" rx="2.8" ry="2.8" fill="url(#qrGrad)"/><rect x="284" y="104" width="9" height="9" rx="2.8" ry="2.8" fill="url(#qrGrad)"/><rect x="304" y="104" width="9" height="9" rx="2.8" ry="2.8" fill="url(#qrGrad)"/><rect x="314" y="104" width="9" height="9" rx="2.8" ry="2.8" fill="url(#qrGrad)"/><rect x="4" y="114" width="9" height="9" rx="2.8" ry="2.8" fill="url(#qrGrad)"/><rect x="24" y="114" width="9" height="9" rx="2.8" ry="2.8" fill="url(#qrGrad)"/><rect x="34" y="114" width="9" height="9" rx="2.8" ry="2.8" fill="url(#qrGrad)"/><rect x="54" y="114" width="9" height="9" rx="2.8" ry="2.8" fill="url(#qrGrad)"/><rect x="74" y="114" width="9" height="9" rx="2.8" ry="2.8" fill="url(#qrGrad)"/><rect x="84" y="114" width="9" height="9" rx="2.8" ry="2.8" fill="url(#qrGrad)"/><rect x="104" y="114" width="9" height="9" rx="2.8" ry="2.8" fill="url(#qrGrad)"/><rect x="144" y="114" width="9" height="9" rx="2.8" ry="2.8" fill="url(#qrGrad)"/><rect x="154" y="114" width="9" height="9" rx="2.8" ry="2.8" fill="url(#qrGrad)"/><rect x="184" y="114" width="9" height="9" rx="2.8" ry="2.8" fill="url(#qrGrad)"/><rect x="204" y="114" width="9" height="9" rx="2.8" ry="2.8" fill="url(#qrGrad)"/><rect x="214" y="114" width="9" height="9" rx="2.8" ry="2.8" fill="url(#qrGrad)"/><rect x="224" y="114" width="9" height="9" rx="2.8" ry="2.8" fill="url(#qrGrad)"/><rect x="244" y="114" width="9" height="9" rx="2.8" ry="2.8" fill="url(#qrGrad)"/><rect x="254" y="114" width="9" height="9" rx="2.8" ry="2.8" fill="url(#qrGrad)"/><rect x="284" y="114" width="9" height="9" rx="2.8" ry="2.8" fill="url(#qrGrad)"/><rect x="294" y="114" width="9" height="9" rx="2.8" ry="2.8" fill="url(#qrGrad)"/><rect x="304" y="114" width="9" height="9" rx="2.8" ry="2.8" fill="url(#qrGrad)"/><rect x="4" y="124" width="9" height="9" rx="2.8" ry="2.8" fill="url(#qrGrad)"/><rect x="14" y="124" width="9" height="9" rx="2.8" ry="2.8" fill="url(#qrGrad)"/><rect x="24" y="124" width="9" height="9" rx="2.8" ry="2.8" fill="url(#qrGrad)"/><rect x="34" y="124" width="9" height="9" rx="2.8" ry="2.8" fill="url(#qrGrad)"/><rect x="44" y="124" width="9" height="9" rx="2.8" ry="2.8" fill="url(#qrGrad)"/><rect x="54" y="124" width="9" height="9" rx="2.8" ry="2.8" fill="url(#qrGrad)"/><rect x="64" y="124" width="9" height="9" rx="2.8" ry="2.8" fill="url(#qrGrad)"/><rect x="74" y="124" width="9" height="9" rx="2.8" ry="2.8" fill="url(#qrGrad)"/><rect x="94" y="124" width="9" height="9" rx="2.8" ry="2.8" fill="url(#qrGrad)"/><rect x="104" y="124" width="9" height="9" rx="2.8" ry="2.8" fill="url(#qrGrad)"/><rect x="124" y="124" width="9" height="9" rx="2.8" ry="2.8" fill="url(#qrGrad)"/><rect x="154" y="124" width="9" height="9" rx="2.8" ry="2.8" fill="url(#qrGrad)"/><rect x="174" y="124" width="9" height="9" rx="2.8" ry="2.8" fill="url(#qrGrad)"/><rect x="184" y="124" width="9" height="9" rx="2.8" ry="2.8" fill="url(#qrGrad)"/><rect x="204" y="124" width="9" height="9" rx="2.8" ry="2.8" fill="url(#qrGrad)"/><rect x="224" y="124" width="9" height="9" rx="2.8" ry="2.8" fill="url(#qrGrad)"/><rect x="234" y="124" width="9" height="9" rx="2.8" ry="2.8" fill="url(#qrGrad)"/><rect x="244" y="124" width="9" height="9" rx="2.8" ry="2.8" fill="url(#qrGrad)"/><rect x="254" y="124" width="9" height="9" rx="2.8" ry="2.8" fill="url(#qrGrad)"/><rect x="274" y="124" width="9" height="9" rx="2.8" ry="2.8" fill="url(#qrGrad)"/><rect x="284" y="124" width="9" height="9" rx="2.8" ry="2.8" fill="url(#qrGrad)"/><rect x="294" y="124" width="9" height="9" rx="2.8" ry="2.8" fill="url(#qrGrad)"/><rect x="324" y="124" width="9" height="9" rx="2.8" ry="2.8" fill="url(#qrGrad)"/><rect x="34" y="134" width="9" height="9" rx="2.8" ry="2.8" fill="url(#qrGrad)"/><rect x="44" y="134" width="9" height="9" rx="2.8" ry="2.8" fill="url(#qrGrad)"/><rect x="74" y="134" width="9" height="9" rx="2.8" ry="2.8" fill="url(#qrGrad)"/><rect x="84" y="134" width="9" height="9" rx="2.8" ry="2.8" fill="url(#qrGrad)"/><rect x="124" y="134" width="9" height="9" rx="2.8" ry="2.8" fill="url(#qrGrad)"/><rect x="134" y="134" width="9" height="9" rx="2.8" ry="2.8" fill="url(#qrGrad)"/><rect x="144" y="134" width="9" height="9" rx="2.8" ry="2.8" fill="url(#qrGrad)"/><rect x="154" y="134" width="9" height="9" rx="2.8" ry="2.8" fill="url(#qrGrad)"/><rect x="164" y="134" width="9" height="9" rx="2.8" ry="2.8" fill="url(#qrGrad)"/><rect x="174" y="134" width="9" height="9" rx="2.8" ry="2.8" fill="url(#qrGrad)"/><rect x="194" y="134" width="9" height="9" rx="2.8" ry="2.8" fill="url(#qrGrad)"/><rect x="204" y="134" width="9" height="9" rx="2.8" ry="2.8" fill="url(#qrGrad)"/><rect x="234" y="134" width="9" height="9" rx="2.8" ry="2.8" fill="url(#qrGrad)"/><rect x="254" y="134" width="9" height="9" rx="2.8" ry="2.8" fill="url(#qrGrad)"/><rect x="264" y="134" width="9" height="9" rx="2.8" ry="2.8" fill="url(#qrGrad)"/><rect x="274" y="134" width="9" height="9" rx="2.8" ry="2.8" fill="url(#qrGrad)"/><rect x="294" y="134" width="9" height="9" rx="2.8" ry="2.8" fill="url(#qrGrad)"/><rect x="314" y="134" width="9" height="9" rx="2.8" ry="2.8" fill="url(#qrGrad)"/><rect x="324" y="134" width="9" height="9" rx="2.8" ry="2.8" fill="url(#qrGrad)"/><rect x="4" y="144" width="9" height="9" rx="2.8" ry="2.8" fill="url(#qrGrad)"/><rect x="14" y="144" width="9" height="9" rx="2.8" ry="2.8" fill="url(#qrGrad)"/><rect x="24" y="144" width="9" height="9" rx="2.8" ry="2.8" fill="url(#qrGrad)"/><rect x="34" y="144" width="9" height="9" rx="2.8" ry="2.8" fill="url(#qrGrad)"/><rect x="54" y="144" width="9" height="9" rx="2.8" ry="2.8" fill="url(#qrGrad)"/><rect x="64" y="144" width="9" height="9" rx="2.8" ry="2.8" fill="url(#qrGrad)"/><rect x="74" y="144" width="9" height="9" rx="2.8" ry="2.8" fill="url(#qrGrad)"/><rect x="84" y="144" width="9" height="9" rx="2.8" ry="2.8" fill="url(#qrGrad)"/><rect x="94" y="144" width="9" height="9" rx="2.8" ry="2.8" fill="url(#qrGrad)"/><rect x="174" y="144" width="9" height="9" rx="2.8" ry="2.8" fill="url(#qrGrad)"/><rect x="204" y="144" width="9" height="9" rx="2.8" ry="2.8" fill="url(#qrGrad)"/><rect x="224" y="144" width="9" height="9" rx="2.8" ry="2.8" fill="url(#qrGrad)"/><rect x="254" y="144" width="9" height="9" rx="2.8" ry="2.8" fill="url(#qrGrad)"/><rect x="264" y="144" width="9" height="9" rx="2.8" ry="2.8" fill="url(#qrGrad)"/><rect x="274" y="144" width="9" height="9" rx="2.8" ry="2.8" fill="url(#qrGrad)"/><rect x="314" y="144" width="9" height="9" rx="2.8" ry="2.8" fill="url(#qrGrad)"/><rect x="14" y="154" width="9" height="9" rx="2.8" ry="2.8" fill="url(#qrGrad)"/><rect x="34" y="154" width="9" height="9" rx="2.8" ry="2.8" fill="url(#qrGrad)"/><rect x="54" y="154" width="9" height="9" rx="2.8" ry="2.8" fill="url(#qrGrad)"/><rect x="74" y="154" width="9" height="9" rx="2.8" ry="2.8" fill="url(#qrGrad)"/><rect x="84" y="154" width="9" height="9" rx="2.8" ry="2.8" fill="url(#qrGrad)"/><rect x="94" y="154" width="9" height="9" rx="2.8" ry="2.8" fill="url(#qrGrad)"/><rect x="114" y="154" width="9" height="9" rx="2.8" ry="2.8" fill="url(#qrGrad)"/><rect x="124" y="154" width="9" height="9" rx="2.8" ry="2.8" fill="url(#qrGrad)"/><rect x="164" y="154" width="9" height="9" rx="2.8" ry="2.8" fill="url(#qrGrad)"/><rect x="184" y="154" width="9" height="9" rx="2.8" ry="2.8" fill="url(#qrGrad)"/><rect x="214" y="154" width="9" height="9" rx="2.8" ry="2.8" fill="url(#qrGrad)"/><rect x="254" y="154" width="9" height="9" rx="2.8" ry="2.8" fill="url(#qrGrad)"/><rect x="264" y="154" width="9" height="9" rx="2.8" ry="2.8" fill="url(#qrGrad)"/><rect x="294" y="154" width="9" height="9" rx="2.8" ry="2.8" fill="url(#qrGrad)"/><rect x="304" y="154" width="9" height="9" rx="2.8" ry="2.8" fill="url(#qrGrad)"/><rect x="4" y="164" width="9" height="9" rx="2.8" ry="2.8" fill="url(#qrGrad)"/><rect x="44" y="164" width="9" height="9" rx="2.8" ry="2.8" fill="url(#qrGrad)"/><rect x="54" y="164" width="9" height="9" rx="2.8" ry="2.8" fill="url(#qrGrad)"/><rect x="64" y="164" width="9" height="9" rx="2.8" ry="2.8" fill="url(#qrGrad)"/><rect x="84" y="164" width="9" height="9" rx="2.8" ry="2.8" fill="url(#qrGrad)"/><rect x="134" y="164" width="9" height="9" rx="2.8" ry="2.8" fill="url(#qrGrad)"/><rect x="144" y="164" width="9" height="9" rx="2.8" ry="2.8" fill="url(#qrGrad)"/><rect x="164" y="164" width="9" height="9" rx="2.8" ry="2.8" fill="url(#qrGrad)"/><rect x="174" y="164" width="9" height="9" rx="2.8" ry="2.8" fill="url(#qrGrad)"/><rect x="244" y="164" width="9" height="9" rx="2.8" ry="2.8" fill="url(#qrGrad)"/><rect x="254" y="164" width="9" height="9" rx="2.8" ry="2.8" fill="url(#qrGrad)"/><rect x="274" y="164" width="9" height="9" rx="2.8" ry="2.8" fill="url(#qrGrad)"/><rect x="284" y="164" width="9" height="9" rx="2.8" ry="2.8" fill="url(#qrGrad)"/><rect x="324" y="164" width="9" height="9" rx="2.8" ry="2.8" fill="url(#qrGrad)"/><rect x="24" y="174" width="9" height="9" rx="2.8" ry="2.8" fill="url(#qrGrad)"/><rect x="34" y="174" width="9" height="9" rx="2.8" ry="2.8" fill="url(#qrGrad)"/><rect x="44" y="174" width="9" height="9" rx="2.8" ry="2.8" fill="url(#qrGrad)"/><rect x="54" y="174" width="9" height="9" rx="2.8" ry="2.8" fill="url(#qrGrad)"/><rect x="74" y="174" width="9" height="9" rx="2.8" ry="2.8" fill="url(#qrGrad)"/><rect x="94" y="174" width="9" height="9" rx="2.8" ry="2.8" fill="url(#qrGrad)"/><rect x="104" y="174" width="9" height="9" rx="2.8" ry="2.8" fill="url(#qrGrad)"/><rect x="114" y="174" width="9" height="9" rx="2.8" ry="2.8" fill="url(#qrGrad)"/><rect x="144" y="174" width="9" height="9" rx="2.8" ry="2.8" fill="url(#qrGrad)"/><rect x="164" y="174" width="9" height="9" rx="2.8" ry="2.8" fill="url(#qrGrad)"/><rect x="174" y="174" width="9" height="9" rx="2.8" ry="2.8" fill="url(#qrGrad)"/><rect x="184" y="174" width="9" height="9" rx="2.8" ry="2.8" fill="url(#qrGrad)"/><rect x="194" y="174" width="9" height="9" rx="2.8" ry="2.8" fill="url(#qrGrad)"/><rect x="204" y="174" width="9" height="9" rx="2.8" ry="2.8" fill="url(#qrGrad)"/><rect x="214" y="174" width="9" height="9" rx="2.8" ry="2.8" fill="url(#qrGrad)"/><rect x="234" y="174" width="9" height="9" rx="2.8" ry="2.8" fill="url(#qrGrad)"/><rect x="264" y="174" width="9" height="9" rx="2.8" ry="2.8" fill="url(#qrGrad)"/><rect x="274" y="174" width="9" height="9" rx="2.8" ry="2.8" fill="url(#qrGrad)"/><rect x="294" y="174" width="9" height="9" rx="2.8" ry="2.8" fill="url(#qrGrad)"/><rect x="304" y="174" width="9" height="9" rx="2.8" ry="2.8" fill="url(#qrGrad)"/><rect x="324" y="174" width="9" height="9" rx="2.8" ry="2.8" fill="url(#qrGrad)"/><rect x="4" y="184" width="9" height="9" rx="2.8" ry="2.8" fill="url(#qrGrad)"/><rect x="34" y="184" width="9" height="9" rx="2.8" ry="2.8" fill="url(#qrGrad)"/><rect x="44" y="184" width="9" height="9" rx="2.8" ry="2.8" fill="url(#qrGrad)"/><rect x="54" y="184" width="9" height="9" rx="2.8" ry="2.8" fill="url(#qrGrad)"/><rect x="64" y="184" width="9" height="9" rx="2.8" ry="2.8" fill="url(#qrGrad)"/><rect x="74" y="184" width="9" height="9" rx="2.8" ry="2.8" fill="url(#qrGrad)"/><rect x="94" y="184" width="9" height="9" rx="2.8" ry="2.8" fill="url(#qrGrad)"/><rect x="104" y="184" width="9" height="9" rx="2.8" ry="2.8" fill="url(#qrGrad)"/><rect x="134" y="184" width="9" height="9" rx="2.8" ry="2.8" fill="url(#qrGrad)"/><rect x="154" y="184" width="9" height="9" rx="2.8" ry="2.8" fill="url(#qrGrad)"/><rect x="164" y="184" width="9" height="9" rx="2.8" ry="2.8" fill="url(#qrGrad)"/><rect x="244" y="184" width="9" height="9" rx="2.8" ry="2.8" fill="url(#qrGrad)"/><rect x="274" y="184" width="9" height="9" rx="2.8" ry="2.8" fill="url(#qrGrad)"/><rect x="284" y="184" width="9" height="9" rx="2.8" ry="2.8" fill="url(#qrGrad)"/><rect x="304" y="184" width="9" height="9" rx="2.8" ry="2.8" fill="url(#qrGrad)"/><rect x="314" y="184" width="9" height="9" rx="2.8" ry="2.8" fill="url(#qrGrad)"/><rect x="24" y="194" width="9" height="9" rx="2.8" ry="2.8" fill="url(#qrGrad)"/><rect x="54" y="194" width="9" height="9" rx="2.8" ry="2.8" fill="url(#qrGrad)"/><rect x="84" y="194" width="9" height="9" rx="2.8" ry="2.8" fill="url(#qrGrad)"/><rect x="114" y="194" width="9" height="9" rx="2.8" ry="2.8" fill="url(#qrGrad)"/><rect x="134" y="194" width="9" height="9" rx="2.8" ry="2.8" fill="url(#qrGrad)"/><rect x="144" y="194" width="9" height="9" rx="2.8" ry="2.8" fill="url(#qrGrad)"/><rect x="164" y="194" width="9" height="9" rx="2.8" ry="2.8" fill="url(#qrGrad)"/><rect x="194" y="194" width="9" height="9" rx="2.8" ry="2.8" fill="url(#qrGrad)"/><rect x="204" y="194" width="9" height="9" rx="2.8" ry="2.8" fill="url(#qrGrad)"/><rect x="214" y="194" width="9" height="9" rx="2.8" ry="2.8" fill="url(#qrGrad)"/><rect x="264" y="194" width="9" height="9" rx="2.8" ry="2.8" fill="url(#qrGrad)"/><rect x="274" y="194" width="9" height="9" rx="2.8" ry="2.8" fill="url(#qrGrad)"/><rect x="284" y="194" width="9" height="9" rx="2.8" ry="2.8" fill="url(#qrGrad)"/><rect x="294" y="194" width="9" height="9" rx="2.8" ry="2.8" fill="url(#qrGrad)"/><rect x="304" y="194" width="9" height="9" rx="2.8" ry="2.8" fill="url(#qrGrad)"/><rect x="314" y="194" width="9" height="9" rx="2.8" ry="2.8" fill="url(#qrGrad)"/><rect x="324" y="194" width="9" height="9" rx="2.8" ry="2.8" fill="url(#qrGrad)"/><rect x="14" y="204" width="9" height="9" rx="2.8" ry="2.8" fill="url(#qrGrad)"/><rect x="24" y="204" width="9" height="9" rx="2.8" ry="2.8" fill="url(#qrGrad)"/><rect x="34" y="204" width="9" height="9" rx="2.8" ry="2.8" fill="url(#qrGrad)"/><rect x="64" y="204" width="9" height="9" rx="2.8" ry="2.8" fill="url(#qrGrad)"/><rect x="84" y="204" width="9" height="9" rx="2.8" ry="2.8" fill="url(#qrGrad)"/><rect x="104" y="204" width="9" height="9" rx="2.8" ry="2.8" fill="url(#qrGrad)"/><rect x="124" y="204" width="9" height="9" rx="2.8" ry="2.8" fill="url(#qrGrad)"/><rect x="164" y="204" width="9" height="9" rx="2.8" ry="2.8" fill="url(#qrGrad)"/><rect x="174" y="204" width="9" height="9" rx="2.8" ry="2.8" fill="url(#qrGrad)"/><rect x="184" y="204" width="9" height="9" rx="2.8" ry="2.8" fill="url(#qrGrad)"/><rect x="194" y="204" width="9" height="9" rx="2.8" ry="2.8" fill="url(#qrGrad)"/><rect x="244" y="204" width="9" height="9" rx="2.8" ry="2.8" fill="url(#qrGrad)"/><rect x="254" y="204" width="9" height="9" rx="2.8" ry="2.8" fill="url(#qrGrad)"/><rect x="284" y="204" width="9" height="9" rx="2.8" ry="2.8" fill="url(#qrGrad)"/><rect x="294" y="204" width="9" height="9" rx="2.8" ry="2.8" fill="url(#qrGrad)"/><rect x="4" y="214" width="9" height="9" rx="2.8" ry="2.8" fill="url(#qrGrad)"/><rect x="34" y="214" width="9" height="9" rx="2.8" ry="2.8" fill="url(#qrGrad)"/><rect x="54" y="214" width="9" height="9" rx="2.8" ry="2.8" fill="url(#qrGrad)"/><rect x="74" y="214" width="9" height="9" rx="2.8" ry="2.8" fill="url(#qrGrad)"/><rect x="84" y="214" width="9" height="9" rx="2.8" ry="2.8" fill="url(#qrGrad)"/><rect x="104" y="214" width="9" height="9" rx="2.8" ry="2.8" fill="url(#qrGrad)"/><rect x="134" y="214" width="9" height="9" rx="2.8" ry="2.8" fill="url(#qrGrad)"/><rect x="154" y="214" width="9" height="9" rx="2.8" ry="2.8" fill="url(#qrGrad)"/><rect x="194" y="214" width="9" height="9" rx="2.8" ry="2.8" fill="url(#qrGrad)"/><rect x="204" y="214" width="9" height="9" rx="2.8" ry="2.8" fill="url(#qrGrad)"/><rect x="224" y="214" width="9" height="9" rx="2.8" ry="2.8" fill="url(#qrGrad)"/><rect x="234" y="214" width="9" height="9" rx="2.8" ry="2.8" fill="url(#qrGrad)"/><rect x="264" y="214" width="9" height="9" rx="2.8" ry="2.8" fill="url(#qrGrad)"/><rect x="294" y="214" width="9" height="9" rx="2.8" ry="2.8" fill="url(#qrGrad)"/><rect x="304" y="214" width="9" height="9" rx="2.8" ry="2.8" fill="url(#qrGrad)"/><rect x="324" y="214" width="9" height="9" rx="2.8" ry="2.8" fill="url(#qrGrad)"/><rect x="4" y="224" width="9" height="9" rx="2.8" ry="2.8" fill="url(#qrGrad)"/><rect x="24" y="224" width="9" height="9" rx="2.8" ry="2.8" fill="url(#qrGrad)"/><rect x="64" y="224" width="9" height="9" rx="2.8" ry="2.8" fill="url(#qrGrad)"/><rect x="104" y="224" width="9" height="9" rx="2.8" ry="2.8" fill="url(#qrGrad)"/><rect x="134" y="224" width="9" height="9" rx="2.8" ry="2.8" fill="url(#qrGrad)"/><rect x="144" y="224" width="9" height="9" rx="2.8" ry="2.8" fill="url(#qrGrad)"/><rect x="154" y="224" width="9" height="9" rx="2.8" ry="2.8" fill="url(#qrGrad)"/><rect x="164" y="224" width="9" height="9" rx="2.8" ry="2.8" fill="url(#qrGrad)"/><rect x="204" y="224" width="9" height="9" rx="2.8" ry="2.8" fill="url(#qrGrad)"/><rect x="224" y="224" width="9" height="9" rx="2.8" ry="2.8" fill="url(#qrGrad)"/><rect x="294" y="224" width="9" height="9" rx="2.8" ry="2.8" fill="url(#qrGrad)"/><rect x="304" y="224" width="9" height="9" rx="2.8" ry="2.8" fill="url(#qrGrad)"/><rect x="314" y="224" width="9" height="9" rx="2.8" ry="2.8" fill="url(#qrGrad)"/><rect x="4" y="234" width="9" height="9" rx="2.8" ry="2.8" fill="url(#qrGrad)"/><rect x="24" y="234" width="9" height="9" rx="2.8" ry="2.8" fill="url(#qrGrad)"/><rect x="44" y="234" width="9" height="9" rx="2.8" ry="2.8" fill="url(#qrGrad)"/><rect x="74" y="234" width="9" height="9" rx="2.8" ry="2.8" fill="url(#qrGrad)"/><rect x="84" y="234" width="9" height="9" rx="2.8" ry="2.8" fill="url(#qrGrad)"/><rect x="94" y="234" width="9" height="9" rx="2.8" ry="2.8" fill="url(#qrGrad)"/><rect x="104" y="234" width="9" height="9" rx="2.8" ry="2.8" fill="url(#qrGrad)"/><rect x="114" y="234" width="9" height="9" rx="2.8" ry="2.8" fill="url(#qrGrad)"/><rect x="124" y="234" width="9" height="9" rx="2.8" ry="2.8" fill="url(#qrGrad)"/><rect x="134" y="234" width="9" height="9" rx="2.8" ry="2.8" fill="url(#qrGrad)"/><rect x="144" y="234" width="9" height="9" rx="2.8" ry="2.8" fill="url(#qrGrad)"/><rect x="154" y="234" width="9" height="9" rx="2.8" ry="2.8" fill="url(#qrGrad)"/><rect x="184" y="234" width="9" height="9" rx="2.8" ry="2.8" fill="url(#qrGrad)"/><rect x="204" y="234" width="9" height="9" rx="2.8" ry="2.8" fill="url(#qrGrad)"/><rect x="214" y="234" width="9" height="9" rx="2.8" ry="2.8" fill="url(#qrGrad)"/><rect x="234" y="234" width="9" height="9" rx="2.8" ry="2.8" fill="url(#qrGrad)"/><rect x="254" y="234" width="9" height="9" rx="2.8" ry="2.8" fill="url(#qrGrad)"/><rect x="274" y="234" width="9" height="9" rx="2.8" ry="2.8" fill="url(#qrGrad)"/><rect x="304" y="234" width="9" height="9" rx="2.8" ry="2.8" fill="url(#qrGrad)"/><rect x="4" y="244" width="9" height="9" rx="2.8" ry="2.8" fill="url(#qrGrad)"/><rect x="24" y="244" width="9" height="9" rx="2.8" ry="2.8" fill="url(#qrGrad)"/><rect x="44" y="244" width="9" height="9" rx="2.8" ry="2.8" fill="url(#qrGrad)"/><rect x="64" y="244" width="9" height="9" rx="2.8" ry="2.8" fill="url(#qrGrad)"/><rect x="74" y="244" width="9" height="9" rx="2.8" ry="2.8" fill="url(#qrGrad)"/><rect x="84" y="244" width="9" height="9" rx="2.8" ry="2.8" fill="url(#qrGrad)"/><rect x="124" y="244" width="9" height="9" rx="2.8" ry="2.8" fill="url(#qrGrad)"/><rect x="134" y="244" width="9" height="9" rx="2.8" ry="2.8" fill="url(#qrGrad)"/><rect x="154" y="244" width="9" height="9" rx="2.8" ry="2.8" fill="url(#qrGrad)"/><rect x="174" y="244" width="9" height="9" rx="2.8" ry="2.8" fill="url(#qrGrad)"/><rect x="224" y="244" width="9" height="9" rx="2.8" ry="2.8" fill="url(#qrGrad)"/><rect x="244" y="244" width="9" height="9" rx="2.8" ry="2.8" fill="url(#qrGrad)"/><rect x="254" y="244" width="9" height="9" rx="2.8" ry="2.8" fill="url(#qrGrad)"/><rect x="264" y="244" width="9" height="9" rx="2.8" ry="2.8" fill="url(#qrGrad)"/><rect x="274" y="244" width="9" height="9" rx="2.8" ry="2.8" fill="url(#qrGrad)"/><rect x="284" y="244" width="9" height="9" rx="2.8" ry="2.8" fill="url(#qrGrad)"/><rect x="324" y="244" width="9" height="9" rx="2.8" ry="2.8" fill="url(#qrGrad)"/><rect x="84" y="254" width="9" height="9" rx="2.8" ry="2.8" fill="url(#qrGrad)"/><rect x="104" y="254" width="9" height="9" rx="2.8" ry="2.8" fill="url(#qrGrad)"/><rect x="114" y="254" width="9" height="9" rx="2.8" ry="2.8" fill="url(#qrGrad)"/><rect x="184" y="254" width="9" height="9" rx="2.8" ry="2.8" fill="url(#qrGrad)"/><rect x="194" y="254" width="9" height="9" rx="2.8" ry="2.8" fill="url(#qrGrad)"/><rect x="204" y="254" width="9" height="9" rx="2.8" ry="2.8" fill="url(#qrGrad)"/><rect x="234" y="254" width="9" height="9" rx="2.8" ry="2.8" fill="url(#qrGrad)"/><rect x="244" y="254" width="9" height="9" rx="2.8" ry="2.8" fill="url(#qrGrad)"/><rect x="284" y="254" width="9" height="9" rx="2.8" ry="2.8" fill="url(#qrGrad)"/><rect x="304" y="254" width="9" height="9" rx="2.8" ry="2.8" fill="url(#qrGrad)"/><rect x="324" y="254" width="9" height="9" rx="2.8" ry="2.8" fill="url(#qrGrad)"/><rect x="4" y="264" width="9" height="9" rx="2.8" ry="2.8" fill="url(#qrGrad)"/><rect x="14" y="264" width="9" height="9" rx="2.8" ry="2.8" fill="url(#qrGrad)"/><rect x="24" y="264" width="9" height="9" rx="2.8" ry="2.8" fill="url(#qrGrad)"/><rect x="34" y="264" width="9" height="9" rx="2.8" ry="2.8" fill="url(#qrGrad)"/><rect x="44" y="264" width="9" height="9" rx="2.8" ry="2.8" fill="url(#qrGrad)"/><rect x="54" y="264" width="9" height="9" rx="2.8" ry="2.8" fill="url(#qrGrad)"/><rect x="64" y="264" width="9" height="9" rx="2.8" ry="2.8" fill="url(#qrGrad)"/><rect x="134" y="264" width="9" height="9" rx="2.8" ry="2.8" fill="url(#qrGrad)"/><rect x="154" y="264" width="9" height="9" rx="2.8" ry="2.8" fill="url(#qrGrad)"/><rect x="174" y="264" width="9" height="9" rx="2.8" ry="2.8" fill="url(#qrGrad)"/><rect x="204" y="264" width="9" height="9" rx="2.8" ry="2.8" fill="url(#qrGrad)"/><rect x="224" y="264" width="9" height="9" rx="2.8" ry="2.8" fill="url(#qrGrad)"/><rect x="234" y="264" width="9" height="9" rx="2.8" ry="2.8" fill="url(#qrGrad)"/><rect x="244" y="264" width="9" height="9" rx="2.8" ry="2.8" fill="url(#qrGrad)"/><rect x="264" y="264" width="9" height="9" rx="2.8" ry="2.8" fill="url(#qrGrad)"/><rect x="284" y="264" width="9" height="9" rx="2.8" ry="2.8" fill="url(#qrGrad)"/><rect x="304" y="264" width="9" height="9" rx="2.8" ry="2.8" fill="url(#qrGrad)"/><rect x="314" y="264" width="9" height="9" rx="2.8" ry="2.8" fill="url(#qrGrad)"/><rect x="4" y="274" width="9" height="9" rx="2.8" ry="2.8" fill="url(#qrGrad)"/><rect x="64" y="274" width="9" height="9" rx="2.8" ry="2.8" fill="url(#qrGrad)"/><rect x="84" y="274" width="9" height="9" rx="2.8" ry="2.8" fill="url(#qrGrad)"/><rect x="114" y="274" width="9" height="9" rx="2.8" ry="2.8" fill="url(#qrGrad)"/><rect x="134" y="274" width="9" height="9" rx="2.8" ry="2.8" fill="url(#qrGrad)"/><rect x="154" y="274" width="9" height="9" rx="2.8" ry="2.8" fill="url(#qrGrad)"/><rect x="184" y="274" width="9" height="9" rx="2.8" ry="2.8" fill="url(#qrGrad)"/><rect x="204" y="274" width="9" height="9" rx="2.8" ry="2.8" fill="url(#qrGrad)"/><rect x="214" y="274" width="9" height="9" rx="2.8" ry="2.8" fill="url(#qrGrad)"/><rect x="224" y="274" width="9" height="9" rx="2.8" ry="2.8" fill="url(#qrGrad)"/><rect x="234" y="274" width="9" height="9" rx="2.8" ry="2.8" fill="url(#qrGrad)"/><rect x="244" y="274" width="9" height="9" rx="2.8" ry="2.8" fill="url(#qrGrad)"/><rect x="284" y="274" width="9" height="9" rx="2.8" ry="2.8" fill="url(#qrGrad)"/><rect x="294" y="274" width="9" height="9" rx="2.8" ry="2.8" fill="url(#qrGrad)"/><rect x="304" y="274" width="9" height="9" rx="2.8" ry="2.8" fill="url(#qrGrad)"/><rect x="314" y="274" width="9" height="9" rx="2.8" ry="2.8" fill="url(#qrGrad)"/><rect x="4" y="284" width="9" height="9" rx="2.8" ry="2.8" fill="url(#qrGrad)"/><rect x="24" y="284" width="9" height="9" rx="2.8" ry="2.8" fill="url(#qrGrad)"/><rect x="34" y="284" width="9" height="9" rx="2.8" ry="2.8" fill="url(#qrGrad)"/><rect x="44" y="284" width="9" height="9" rx="2.8" ry="2.8" fill="url(#qrGrad)"/><rect x="64" y="284" width="9" height="9" rx="2.8" ry="2.8" fill="url(#qrGrad)"/><rect x="84" y="284" width="9" height="9" rx="2.8" ry="2.8" fill="url(#qrGrad)"/><rect x="114" y="284" width="9" height="9" rx="2.8" ry="2.8" fill="url(#qrGrad)"/><rect x="124" y="284" width="9" height="9" rx="2.8" ry="2.8" fill="url(#qrGrad)"/><rect x="134" y="284" width="9" height="9" rx="2.8" ry="2.8" fill="url(#qrGrad)"/><rect x="144" y="284" width="9" height="9" rx="2.8" ry="2.8" fill="url(#qrGrad)"/><rect x="184" y="284" width="9" height="9" rx="2.8" ry="2.8" fill="url(#qrGrad)"/><rect x="224" y="284" width="9" height="9" rx="2.8" ry="2.8" fill="url(#qrGrad)"/><rect x="244" y="284" width="9" height="9" rx="2.8" ry="2.8" fill="url(#qrGrad)"/><rect x="254" y="284" width="9" height="9" rx="2.8" ry="2.8" fill="url(#qrGrad)"/><rect x="264" y="284" width="9" height="9" rx="2.8" ry="2.8" fill="url(#qrGrad)"/><rect x="274" y="284" width="9" height="9" rx="2.8" ry="2.8" fill="url(#qrGrad)"/><rect x="284" y="284" width="9" height="9" rx="2.8" ry="2.8" fill="url(#qrGrad)"/><rect x="294" y="284" width="9" height="9" rx="2.8" ry="2.8" fill="url(#qrGrad)"/><rect x="314" y="284" width="9" height="9" rx="2.8" ry="2.8" fill="url(#qrGrad)"/><rect x="4" y="294" width="9" height="9" rx="2.8" ry="2.8" fill="url(#qrGrad)"/><rect x="24" y="294" width="9" height="9" rx="2.8" ry="2.8" fill="url(#qrGrad)"/><rect x="34" y="294" width="9" height="9" rx="2.8" ry="2.8" fill="url(#qrGrad)"/><rect x="44" y="294" width="9" height="9" rx="2.8" ry="2.8" fill="url(#qrGrad)"/><rect x="64" y="294" width="9" height="9" rx="2.8" ry="2.8" fill="url(#qrGrad)"/><rect x="84" y="294" width="9" height="9" rx="2.8" ry="2.8" fill="url(#qrGrad)"/><rect x="94" y="294" width="9" height="9" rx="2.8" ry="2.8" fill="url(#qrGrad)"/><rect x="114" y="294" width="9" height="9" rx="2.8" ry="2.8" fill="url(#qrGrad)"/><rect x="134" y="294" width="9" height="9" rx="2.8" ry="2.8" fill="url(#qrGrad)"/><rect x="154" y="294" width="9" height="9" rx="2.8" ry="2.8" fill="url(#qrGrad)"/><rect x="164" y="294" width="9" height="9" rx="2.8" ry="2.8" fill="url(#qrGrad)"/><rect x="184" y="294" width="9" height="9" rx="2.8" ry="2.8" fill="url(#qrGrad)"/><rect x="194" y="294" width="9" height="9" rx="2.8" ry="2.8" fill="url(#qrGrad)"/><rect x="204" y="294" width="9" height="9" rx="2.8" ry="2.8" fill="url(#qrGrad)"/><rect x="214" y="294" width="9" height="9" rx="2.8" ry="2.8" fill="url(#qrGrad)"/><rect x="224" y="294" width="9" height="9" rx="2.8" ry="2.8" fill="url(#qrGrad)"/><rect x="254" y="294" width="9" height="9" rx="2.8" ry="2.8" fill="url(#qrGrad)"/><rect x="284" y="294" width="9" height="9" rx="2.8" ry="2.8" fill="url(#qrGrad)"/><rect x="294" y="294" width="9" height="9" rx="2.8" ry="2.8" fill="url(#qrGrad)"/><rect x="314" y="294" width="9" height="9" rx="2.8" ry="2.8" fill="url(#qrGrad)"/><rect x="324" y="294" width="9" height="9" rx="2.8" ry="2.8" fill="url(#qrGrad)"/><rect x="4" y="304" width="9" height="9" rx="2.8" ry="2.8" fill="url(#qrGrad)"/><rect x="24" y="304" width="9" height="9" rx="2.8" ry="2.8" fill="url(#qrGrad)"/><rect x="34" y="304" width="9" height="9" rx="2.8" ry="2.8" fill="url(#qrGrad)"/><rect x="44" y="304" width="9" height="9" rx="2.8" ry="2.8" fill="url(#qrGrad)"/><rect x="64" y="304" width="9" height="9" rx="2.8" ry="2.8" fill="url(#qrGrad)"/><rect x="84" y="304" width="9" height="9" rx="2.8" ry="2.8" fill="url(#qrGrad)"/><rect x="114" y="304" width="9" height="9" rx="2.8" ry="2.8" fill="url(#qrGrad)"/><rect x="124" y="304" width="9" height="9" rx="2.8" ry="2.8" fill="url(#qrGrad)"/><rect x="204" y="304" width="9" height="9" rx="2.8" ry="2.8" fill="url(#qrGrad)"/><rect x="224" y="304" width="9" height="9" rx="2.8" ry="2.8" fill="url(#qrGrad)"/><rect x="244" y="304" width="9" height="9" rx="2.8" ry="2.8" fill="url(#qrGrad)"/><rect x="254" y="304" width="9" height="9" rx="2.8" ry="2.8" fill="url(#qrGrad)"/><rect x="264" y="304" width="9" height="9" rx="2.8" ry="2.8" fill="url(#qrGrad)"/><rect x="274" y="304" width="9" height="9" rx="2.8" ry="2.8" fill="url(#qrGrad)"/><rect x="294" y="304" width="9" height="9" rx="2.8" ry="2.8" fill="url(#qrGrad)"/><rect x="304" y="304" width="9" height="9" rx="2.8" ry="2.8" fill="url(#qrGrad)"/><rect x="4" y="314" width="9" height="9" rx="2.8" ry="2.8" fill="url(#qrGrad)"/><rect x="64" y="314" width="9" height="9" rx="2.8" ry="2.8" fill="url(#qrGrad)"/><rect x="114" y="314" width="9" height="9" rx="2.8" ry="2.8" fill="url(#qrGrad)"/><rect x="124" y="314" width="9" height="9" rx="2.8" ry="2.8" fill="url(#qrGrad)"/><rect x="164" y="314" width="9" height="9" rx="2.8" ry="2.8" fill="url(#qrGrad)"/><rect x="194" y="314" width="9" height="9" rx="2.8" ry="2.8" fill="url(#qrGrad)"/><rect x="214" y="314" width="9" height="9" rx="2.8" ry="2.8" fill="url(#qrGrad)"/><rect x="254" y="314" width="9" height="9" rx="2.8" ry="2.8" fill="url(#qrGrad)"/><rect x="284" y="314" width="9" height="9" rx="2.8" ry="2.8" fill="url(#qrGrad)"/><rect x="294" y="314" width="9" height="9" rx="2.8" ry="2.8" fill="url(#qrGrad)"/><rect x="304" y="314" width="9" height="9" rx="2.8" ry="2.8" fill="url(#qrGrad)"/><rect x="4" y="324" width="9" height="9" rx="2.8" ry="2.8" fill="url(#qrGrad)"/><rect x="14" y="324" width="9" height="9" rx="2.8" ry="2.8" fill="url(#qrGrad)"/><rect x="24" y="324" width="9" height="9" rx="2.8" ry="2.8" fill="url(#qrGrad)"/><rect x="34" y="324" width="9" height="9" rx="2.8" ry="2.8" fill="url(#qrGrad)"/><rect x="44" y="324" width="9" height="9" rx="2.8" ry="2.8" fill="url(#qrGrad)"/><rect x="54" y="324" width="9" height="9" rx="2.8" ry="2.8" fill="url(#qrGrad)"/><rect x="64" y="324" width="9" height="9" rx="2.8" ry="2.8" fill="url(#qrGrad)"/><rect x="84" y="324" width="9" height="9" rx="2.8" ry="2.8" fill="url(#qrGrad)"/><rect x="94" y="324" width="9" height="9" rx="2.8" ry="2.8" fill="url(#qrGrad)"/><rect x="114" y="324" width="9" height="9" rx="2.8" ry="2.8" fill="url(#qrGrad)"/><rect x="134" y="324" width="9" height="9" rx="2.8" ry="2.8" fill="url(#qrGrad)"/><rect x="144" y="324" width="9" height="9" rx="2.8" ry="2.8" fill="url(#qrGrad)"/><rect x="164" y="324" width="9" height="9" rx="2.8" ry="2.8" fill="url(#qrGrad)"/><rect x="174" y="324" width="9" height="9" rx="2.8" ry="2.8" fill="url(#qrGrad)"/><rect x="204" y="324" width="9" height="9" rx="2.8" ry="2.8" fill="url(#qrGrad)"/><rect x="224" y="324" width="9" height="9" rx="2.8" ry="2.8" fill="url(#qrGrad)"/><rect x="234" y="324" width="9" height="9" rx="2.8" ry="2.8" fill="url(#qrGrad)"/><rect x="244" y="324" width="9" height="9" rx="2.8" ry="2.8" fill="url(#qrGrad)"/><rect x="254" y="324" width="9" height="9" rx="2.8" ry="2.8" fill="url(#qrGrad)"/><rect x="274" y="324" width="9" height="9" rx="2.8" ry="2.8" fill="url(#qrGrad)"/><rect x="314" y="324" width="9" height="9" rx="2.8" ry="2.8" fill="url(#qrGrad)"/>
  <rect x="4" y="4" width="70" height="70" rx="8" ry="8" fill="none" stroke="url(#qrAccent)" stroke-width="3"/>
  <rect x="264" y="4" width="70" height="70" rx="8" ry="8" fill="none" stroke="url(#qrAccent)" stroke-width="3"/>
  <rect x="4" y="264" width="70" height="70" rx="8" ry="8" fill="none" stroke="url(#qrAccent)" stroke-width="3"/>
</svg>